<svg width="323" height="323" viewBox="0 0 323 323" fill="none" xmlns="http://www.w3.org/2000/svg">
<rect x="8" y="8" width="307" height="307" rx="153.5" stroke="#1CAC7B" stroke-width="16"/>
<path d="M162 311.5V97M162 97L195 64M162 97L129 64" stroke="#1CAC7B" stroke-width="16"/>
<path d="M162 267L193.5 235.5M281 184H245L193.5 235.5M193.5 235.5V191M193.5 235.5H242" stroke="#1CAC7B" stroke-width="16"/>
<path d="M162 267L130.5 235.5M43 184H79L130.5 235.5M130.5 235.5V191M130.5 235.5H82" stroke="#1CAC7B" stroke-width="16"/>
<path d="M162 184L124.5 146.5M64 111H89L124.5 146.5M124.5 146.5V102M124.5 146.5H76" stroke="#1CAC7B" stroke-width="16"/>
<path d="M162 184L199.5 146.5M260 111H235L199.5 146.5M199.5 146.5V102M199.5 146.5H248" stroke="#1CAC7B" stroke-width="16"/>
</svg>
